<?xml version="1.0" encoding="UTF-8"?>
<svg id="Layer_1" xmlns="http://www.w3.org/2000/svg" version="1.1" viewBox="0 0 1080 1080">
  <!-- Generator: Adobe Illustrator 29.8.7, SVG Export Plug-In . SVG Version: 2.1.1 Build 1)  -->
  <defs>
    <style>
      .st0 {
        fill: none;
      }

      .st1 {
        font-size: 120px;
      }

      .st2, .st3 {
        fill: #646b63;
      }

      .st4 {
        font-size: 48px;
      }

      .st3 {
        font-family: FelixTitlingMT, 'Felix Titling';
      }
    </style>
  </defs>
  <path class="st2" d="M448.3,540.3c-1.3,8.5-3.1,14.1-5.5,16.6-2.4,2.5-5.3,4.2-8.8,5.1-3.4.8-11.4,1.3-23.7,1.3h-38.9c-8.4,0-14.7-.6-18.8-1.7-4.1-1.1-7.2-4-9.1-8.5-1.9-4.5-2.8-12-2.8-22.3v-68.2h85.5v-6.2h-15.5c-.7,0-1.5,0-2.3,0h-67.6v-99.1h72.9c8,0,13,1,15.1,3,2,2,4.6,8.6,7.6,19.9h2.2v-30.4h-123.4v18.9c0,1.8.1,3.7.1,5.7v178.3c0,1.2,0,2.3-.1,3.4v14.6h135.6v-30.3h-2.2Z"/>
  <path class="st2" d="M749.2,349.6l-64.5,179.1-64.8-179.1h-28.7l6.2,15.5s0,0,0,0l10.9,27.3-48.1,135.7s-60.9-168.5-60.9-170.7c0-3.7,2.5-5.5,7.6-5.5v-2.2h-38.4l81.8,224.4h3.4l59.9-168.4,61,168.4h3.7l71.1-200.7c5.1-14.2,12-21.3,20.8-21.4v-2.2h-20.8Z"/>
  <path class="st2" d="M942.6,555.6c-4-8.5-84.8-209.3-84.8-209.3h-4l-80.1,202c-1.5,3.9-3,7.1-4.5,9.7l-5,12.6h11.2l39.7-101.7h64.8l31.9,79.4.8,2,2.4,6,5.7,14.3h40.2v-2.2c-8.3,0-14.4-4.2-18.5-12.7ZM817.3,462.7l29.9-75.3,29.8,75.3h-59.7Z"/>
  <path class="st2" d="M271.5,516.8c-.7,17.9-4.1,30.1-10.2,36.5-6.1,6.5-15.7,9.7-28.8,9.7h-27.3c-15.7,0-26.7-2.8-33.2-8.3-6.5-5.5-9.7-15-9.7-28.4v-156.8c0-6.8.4-11.1,1.1-13,.7-1.9,2.2-3.6,4.4-5,2.2-1.4,6.1-2.1,11.7-2.1v-2.3h-59.9v2.3c8.1.2,12.9,1.7,14.6,4.6,1.6,2.9,2.4,7.6,2.4,14v182.8c0,6.4-1,10.9-3.1,13.5-2.1,2.6-6.6,3.9-13.6,3.9v2.3h153.9v-53.7h-2.3Z"/>
  <text class="st3" transform="translate(296.7 -441.3)"><tspan class="st1"><tspan x="0" y="0">LEWA </tspan></tspan><tspan class="st4"><tspan x="2.1" y="49" xml:space="preserve">B  O  S  T  A  D</tspan></tspan></text>
  <path class="st0" d="M153.1,672.5c-3.2-.9-9.1-1.3-17.6-1.3h-7v28.3c0,3.9.2,6.5.5,7.6.3,1.2,1,2.4,2.1,3.7,1.1,1.3,2.8,2.3,5.2,3.1,2.4.8,5.8,1.2,10.3,1.2,7,0,11.9-1.6,14.7-4.8,2.9-3.2,4.3-8,4.3-14.3s-1.3-11.9-3.8-16c-2.5-4.1-5.4-6.6-8.6-7.5Z"/>
  <polygon class="st0" points="731.9 672.7 752.7 672.7 742.3 646.6 731.9 672.7"/>
  <path class="st0" d="M154,663c2.4-4.2,3.6-8.4,3.6-12.5s-.9-8.2-2.8-11.2c-1.9-3-4.6-5.3-8.2-6.8-3.6-1.5-8.8-2.3-15.8-2.3h-2.4v39.2h10.8c7.4,0,12.2-2.1,14.6-6.3Z"/>
  <path class="st0" d="M317.7,637.6c-7.4-4-14.2-6-20.5-6s-16.9,3.3-24.1,10c-7.2,6.7-10.8,15-10.8,24.9s4.4,23.8,13.2,33.3c8.8,9.6,18.7,14.4,29.6,14.4s12.2-1.6,18.2-4.9c6-3.3,10.7-7.8,14.1-13.6,3.4-5.8,5.2-11.7,5.2-17.8,0-8.6-2.3-16.5-6.9-23.6-4.6-7.1-10.6-12.6-18-16.6Z"/>
  <path class="st0" d="M938.3,643.1c-9.3-8.7-23.2-13.1-41.9-13.1h-13.7v69.3c0,4.4.7,7.6,2.2,9.7,1.5,2.1,4,3.7,7.5,4.6,3.6.9,8.3,1.4,14.4,1.4,16.7,0,28.5-4.3,35.2-12.9,6.8-8.6,10.2-18,10.2-28.1s-4.6-22.2-13.9-31Z"/>
  <path class="st2" d="M305.6,626.8c-10.5,0-19.5,2.5-27.2,7.6-7.6,5.1-13.4,11.6-17.2,19.7-3.8,8-5.7,15.9-5.7,23.5,0,11.3,3.9,21,11.8,29.1,7.9,8.1,18,12.1,30.4,12.1s27.5-5,36.7-15c9.2-10,13.8-22.4,13.8-37s-4-20.9-11.9-28.5c-8-7.6-18.2-11.4-30.7-11.4ZM337.5,695.6c-3.4,5.8-8.1,10.3-14.1,13.6-6,3.3-12,4.9-18.2,4.9-11,0-20.8-4.8-29.6-14.4-8.8-9.6-13.2-20.7-13.2-33.3s3.6-18.2,10.8-24.9c7.2-6.7,15.2-10,24.1-10s13.1,2,20.5,6c7.4,4,13.4,9.5,18,16.6,4.6,7.1,6.9,14.9,6.9,23.6s-1.7,12-5.2,17.8Z"/>
  <path class="st2" d="M466.9,669.9c-3.4-1.6-9.7-3.9-18.8-7-5.3-2.1-8.8-4.4-10.5-6.8-1.7-2.4-2.5-5.3-2.5-8.6,0-4.9,1.8-9.1,5.4-12.6,3.6-3.5,8.4-5.2,14.5-5.2s6.9.6,9.8,1.9c2.9,1.3,5.5,3.1,7.7,5.4,2.2,2.3,3.4,3.5,3.4,3.6h.7c0-.1-4.2-11.3-4.2-11.3-.2,0-.3,0-.5-.1-.4-.2-2.3-.6-5.8-1.3-3.5-.7-6.7-1-9.7-1-7.7,0-14,2.3-18.7,7-4.7,4.7-7.1,10.5-7.1,17.4s.9,7.4,2.8,11.1c1.9,3.6,4.2,6.3,6.9,8.1,2.8,1.8,7.6,3.9,14.4,6.3,6.9,2.4,11.5,4.4,14,6,2.5,1.6,4.4,3.5,5.8,5.7,1.4,2.2,2.1,4.8,2.1,7.8,0,5.1-2,9.4-5.9,13-3.9,3.6-9.7,5.4-17.3,5.4s-14.5-1.7-18.5-5.1c-4-3.4-6-9.4-6.1-18h-.9v25.9h23.8c1.3,0,3.8-.2,7.8-.7,3.9-.4,6.8-1.1,8.6-2,1.8-.9,3.6-2.1,5.4-3.8,1.8-1.7,3.3-3.5,4.5-5.6,1.3-2,2.2-4.2,2.7-6.4.6-2.2.8-4.5.8-6.9,0-5.8-1.6-10.6-4.7-14.3-3.1-3.7-6.4-6.3-9.8-7.9Z"/>
  <path class="st2" d="M781.9,710.9c-2-4.3-2.3-5.2-2.3-5.2l-32.2-80h-3.2l-32.7,82.4c-.9,2.2-1.6,3.6-2.2,4.6l-2.4,6h7l1.6-4.2c0-.3.3-1.2,1.3-3.9l13.2-33h24.6l16.8,41.1h18v-3.2h-1.2c-2.9,0-5-1.5-6.4-4.5ZM731.9,672.7l10.4-26.1,10.4,26.1h-20.7Z"/>
  <path class="st2" d="M155.8,667.3c7.4-4.4,11.2-10.3,11.2-17.9s-.9-7.3-2.7-10.3c-1.8-3-4-5.3-6.6-6.9-2.6-1.6-5.3-2.7-8.1-3.2-2.8-.6-7.6-.8-14.4-.8h-16.1v89.3h27.3c6.5,0,11.6-.8,15.2-2.3,3.6-1.5,6.8-4.6,9.6-9.2,2.8-4.6,4.2-9.7,4.2-15.3s-1.6-11.1-4.9-15.4c-3.3-4.2-8.1-6.9-14.5-8ZM128.5,630h2.4c7,0,12.2.8,15.8,2.3,3.6,1.5,6.3,3.8,8.2,6.8,1.9,3,2.8,6.8,2.8,11.2s-1.2,8.3-3.6,12.5c-2.4,4.2-7.3,6.3-14.6,6.3h-10.8v-39.2ZM161.2,710.3c-2.9,3.2-7.8,4.8-14.7,4.8s-7.9-.4-10.3-1.2c-2.4-.8-4.1-1.8-5.2-3.1-1.1-1.3-1.8-2.5-2.1-3.7-.3-1.2-.5-3.7-.5-7.6v-28.3h7c8.5,0,14.4.4,17.6,1.3,3.2.9,6.1,3.4,8.6,7.5,2.5,4.1,3.8,9.5,3.8,16s-1.4,11.1-4.3,14.3Z"/>
  <path class="st2" d="M958.1,651.8c-2.6-5.5-6.2-10-10.7-13.5-4.5-3.5-9.7-6.1-15.8-7.7-6-1.6-14.3-2.5-24.7-2.5h-35.2v89.3h36.2c10.9,0,18.9-.8,24.1-2.5,5.2-1.7,10.1-4.8,14.8-9.3,4.7-4.5,8.4-10,11.1-16.2,2.7-6.3,4.1-12.7,4.1-19.2s-1.3-12.9-3.9-18.3ZM942,702.2c-6.8,8.6-18.5,12.9-35.2,12.9s-10.8-.5-14.4-1.4c-3.6-.9-6.1-2.5-7.5-4.6-1.5-2.1-2.2-5.4-2.2-9.7v-69.3h13.7c18.7,0,32.6,4.4,41.9,13.1,9.3,8.7,13.9,19.1,13.9,31s-3.4,19.5-10.2,28.1Z"/>
  <path class="st2" d="M630.2,625.3h-72.7v5.9h31.1v2.1c0,0,0,75.3,0,75.3,0,3.1-.4,5.1-1.2,6.1-.8,1-2.7,1.6-5.7,1.8v.9h24.2v-.9c-1.9,0-3.3-.2-4.2-.5-.9-.3-1.6-1-2.1-2.2-.5-1.2-.8-3.3-.8-6.5v-76.2s31.2,0,31.2,0v-5.9Z"/>
</svg>