<?xml version="1.0" encoding="UTF-8" standalone="no"?>
<svg
   id="Layer_1"
   version="1.1"
   viewBox="0 0 842.90002 372.5"
   sodipodi:docname="lewa_bostad_logo_grön.svg"
   width="842.90002"
   height="372.5"
   xmlns:inkscape="http://www.inkscape.org/namespaces/inkscape"
   xmlns:sodipodi="http://sodipodi.sourceforge.net/DTD/sodipodi-0.dtd"
   xmlns="http://www.w3.org/2000/svg"
   xmlns:svg="http://www.w3.org/2000/svg">
  <sodipodi:namedview
     id="namedview16"
     pagecolor="#ffffff"
     bordercolor="#000000"
     borderopacity="0.25"
     inkscape:showpageshadow="2"
     inkscape:pageopacity="0.0"
     inkscape:pagecheckerboard="0"
     inkscape:deskcolor="#d1d1d1"
     showgrid="false">
    <inkscape:page
       x="0"
       y="0"
       width="842.90002"
       height="372.5"
       id="page2"
       margin="0"
       bleed="0" />
  </sodipodi:namedview>
  <!-- Generator: Adobe Illustrator 29.8.7, SVG Export Plug-In . SVG Version: 2.1.1 Build 1)  -->
  <defs
     id="defs1">
    <style
       id="style1">
      .st0 {
        fill: none;
      }

      .st1 {
        font-size: 120px;
      }

      .st2, .st3 {
        fill: #646b63;
      }

      .st4 {
        font-size: 48px;
      }

      .st3 {
        font-family: FelixTitlingMT, 'Felix Titling';
      }
    </style>
  </defs>
  <path
     class="st2"
     d="m 329.2,194 c -1.3,8.5 -3.1,14.1 -5.5,16.6 -2.4,2.5 -5.3,4.2 -8.8,5.1 -3.4,0.8 -11.4,1.3 -23.7,1.3 h -38.9 c -8.4,0 -14.7,-0.6 -18.8,-1.7 -4.1,-1.1 -7.2,-4 -9.1,-8.5 -1.9,-4.5 -2.8,-12 -2.8,-22.3 v -68.2 h 85.5 v -6.2 h -15.5 c -0.7,0 -1.5,0 -2.3,0 H 221.7 V 11 h 72.9 c 8,0 13,1 15.1,3 2,2 4.6,8.6 7.6,19.9 h 2.2 V 3.5 H 196.1 v 18.9 c 0,1.8 0.1,3.7 0.1,5.7 v 178.3 c 0,1.2 0,2.3 -0.1,3.4 v 14.6 h 135.6 v -30.3 h -2.2 z"
     id="path1"
     style="stroke:none;stroke-width:1.00157;stroke-dasharray:none" />
  <path
     class="st2"
     d="M 630.1,3.3 565.6,182.4 500.8,3.3 h -28.7 l 6.2,15.5 c 0,0 0,0 0,0 l 10.9,27.3 -48.1,135.7 c 0,0 -60.9,-168.5 -60.9,-170.7 0,-3.7 2.5,-5.5 7.6,-5.5 V 3.4 h -38.4 l 81.8,224.4 h 3.4 l 59.9,-168.4 61,168.4 h 3.7 L 630.3,27.1 c 5.1,-14.2 12,-21.3 20.8,-21.4 V 3.5 h -20.8 z"
     id="path2"
     style="stroke:none;stroke-width:1.00157;stroke-dasharray:none" />
  <path
     class="st2"
     d="M 823.5,209.3 C 819.5,200.8 738.7,0 738.7,0 h -4 l -80.1,202 c -1.5,3.9 -3,7.1 -4.5,9.7 l -5,12.6 h 11.2 L 696,122.6 h 64.8 l 31.9,79.4 0.8,2 2.4,6 5.7,14.3 h 40.2 v -2.2 c -8.3,0 -14.4,-4.2 -18.5,-12.7 z m -125.3,-92.9 29.9,-75.3 29.8,75.3 z"
     id="path3"
     style="stroke:none;stroke-width:1.00157;stroke-dasharray:none" />
  <path
     class="st2"
     d="m 152.4,170.5 c -0.7,17.9 -4.1,30.1 -10.2,36.5 -6.1,6.5 -15.7,9.7 -28.8,9.7 H 86.1 c -15.7,0 -26.7,-2.8 -33.2,-8.3 -6.5,-5.5 -9.7,-15 -9.7,-28.4 V 23.2 c 0,-6.8 0.4,-11.1 1.1,-13 0.7,-1.9 2.2,-3.6 4.4,-5 2.2,-1.4 6.1,-2.1 11.7,-2.1 V 0.8 H 0.5 v 2.3 c 8.1,0.2 12.9,1.7 14.6,4.6 1.6,2.9 2.4,7.6 2.4,14 v 182.8 c 0,6.4 -1,10.9 -3.1,13.5 -2.1,2.6 -6.6,3.9 -13.6,3.9 v 2.3 h 153.9 v -53.7 z"
     id="path4"
     style="stroke:none;stroke-width:1.00157;stroke-dasharray:none" />
  <path
     class="st0"
     d="m 34,326.2 c -3.2,-0.9 -9.1,-1.3 -17.6,-1.3 h -7 v 28.3 c 0,3.9 0.2,6.5 0.5,7.6 0.3,1.2 1,2.4 2.1,3.7 1.1,1.3 2.8,2.3 5.2,3.1 2.4,0.8 5.8,1.2 10.3,1.2 7,0 11.9,-1.6 14.7,-4.8 2.9,-3.2 4.3,-8 4.3,-14.3 0,-6.3 -1.3,-11.9 -3.8,-16 -2.5,-4.1 -5.4,-6.6 -8.6,-7.5 z"
     id="path7"
     style="stroke:none;stroke-width:1.00157;stroke-dasharray:none" />
  <polygon
     class="st0"
     points="731.9,672.7 752.7,672.7 742.3,646.6 "
     id="polygon7"
     transform="translate(-119.1,-346.3)"
     style="stroke:none;stroke-width:1.00157;stroke-dasharray:none" />
  <path
     class="st0"
     d="m 34.9,316.7 c 2.4,-4.2 3.6,-8.4 3.6,-12.5 0,-4.1 -0.9,-8.2 -2.8,-11.2 -1.9,-3 -4.6,-5.3 -8.2,-6.8 -3.6,-1.5 -8.8,-2.3 -15.8,-2.3 H 9.3 v 39.2 h 10.8 c 7.4,0 12.2,-2.1 14.6,-6.3 z"
     id="path8"
     style="stroke:none;stroke-width:1.00157;stroke-dasharray:none" />
  <path
     class="st0"
     d="m 198.6,291.3 c -7.4,-4 -14.2,-6 -20.5,-6 -6.3,0 -16.9,3.3 -24.1,10 -7.2,6.7 -10.8,15 -10.8,24.9 0,9.9 4.4,23.8 13.2,33.3 8.8,9.6 18.7,14.4 29.6,14.4 10.9,0 12.2,-1.6 18.2,-4.9 6,-3.3 10.7,-7.8 14.1,-13.6 3.4,-5.8 5.2,-11.7 5.2,-17.8 0,-8.6 -2.3,-16.5 -6.9,-23.6 -4.6,-7.1 -10.6,-12.6 -18,-16.6 z"
     id="path9"
     style="stroke:none;stroke-width:1.00157;stroke-dasharray:none" />
  <path
     class="st0"
     d="M 819.2,296.8 C 809.9,288.1 796,283.7 777.3,283.7 H 763.6 V 353 c 0,4.4 0.7,7.6 2.2,9.7 1.5,2.1 4,3.7 7.5,4.6 3.6,0.9 8.3,1.4 14.4,1.4 16.7,0 28.5,-4.3 35.2,-12.9 6.8,-8.6 10.2,-18 10.2,-28.1 0,-10.1 -4.6,-22.2 -13.9,-31 z"
     id="path10"
     style="stroke:none;stroke-width:1.00157;stroke-dasharray:none" />
  <path
     class="st2"
     d="m 186.5,280.5 c -10.5,0 -19.5,2.5 -27.2,7.6 -7.6,5.1 -13.4,11.6 -17.2,19.7 -3.8,8 -5.7,15.9 -5.7,23.5 0,11.3 3.9,21 11.8,29.1 7.9,8.1 18,12.1 30.4,12.1 12.4,0 27.5,-5 36.7,-15 9.2,-10 13.8,-22.4 13.8,-37 0,-14.6 -4,-20.9 -11.9,-28.5 -8,-7.6 -18.2,-11.4 -30.7,-11.4 z m 31.9,68.8 c -3.4,5.8 -8.1,10.3 -14.1,13.6 -6,3.3 -12,4.9 -18.2,4.9 -11,0 -20.8,-4.8 -29.6,-14.4 -8.8,-9.6 -13.2,-20.7 -13.2,-33.3 0,-12.6 3.6,-18.2 10.8,-24.9 7.2,-6.7 15.2,-10 24.1,-10 8.9,0 13.1,2 20.5,6 7.4,4 13.4,9.5 18,16.6 4.6,7.1 6.9,14.9 6.9,23.6 0,8.7 -1.7,12 -5.2,17.8 z"
     id="path11"
     style="stroke:none;stroke-width:1.00157;stroke-dasharray:none" />
  <path
     class="st2"
     d="m 347.8,323.6 c -3.4,-1.6 -9.7,-3.9 -18.8,-7 -5.3,-2.1 -8.8,-4.4 -10.5,-6.8 -1.7,-2.4 -2.5,-5.3 -2.5,-8.6 0,-4.9 1.8,-9.1 5.4,-12.6 3.6,-3.5 8.4,-5.2 14.5,-5.2 6.1,0 6.9,0.6 9.8,1.9 2.9,1.3 5.5,3.1 7.7,5.4 2.2,2.3 3.4,3.5 3.4,3.6 h 0.7 c 0,-0.1 -4.2,-11.3 -4.2,-11.3 -0.2,0 -0.3,0 -0.5,-0.1 -0.4,-0.2 -2.3,-0.6 -5.8,-1.3 -3.5,-0.7 -6.7,-1 -9.7,-1 -7.7,0 -14,2.3 -18.7,7 -4.7,4.7 -7.1,10.5 -7.1,17.4 0,6.9 0.9,7.4 2.8,11.1 1.9,3.6 4.2,6.3 6.9,8.1 2.8,1.8 7.6,3.9 14.4,6.3 6.9,2.4 11.5,4.4 14,6 2.5,1.6 4.4,3.5 5.8,5.7 1.4,2.2 2.1,4.8 2.1,7.8 0,5.1 -2,9.4 -5.9,13 -3.9,3.6 -9.7,5.4 -17.3,5.4 -7.6,0 -14.5,-1.7 -18.5,-5.1 -4,-3.4 -6,-9.4 -6.1,-18 h -0.9 v 25.9 h 23.8 c 1.3,0 3.8,-0.2 7.8,-0.7 3.9,-0.4 6.8,-1.1 8.6,-2 1.8,-0.9 3.6,-2.1 5.4,-3.8 1.8,-1.7 3.3,-3.5 4.5,-5.6 1.3,-2 2.2,-4.2 2.7,-6.4 0.6,-2.2 0.8,-4.5 0.8,-6.9 0,-5.8 -1.6,-10.6 -4.7,-14.3 -3.1,-3.7 -6.4,-6.3 -9.8,-7.9 z"
     id="path12"
     style="stroke:none;stroke-width:1.00157;stroke-dasharray:none" />
  <path
     class="st2"
     d="m 662.8,364.6 c -2,-4.3 -2.3,-5.2 -2.3,-5.2 l -32.2,-80 h -3.2 l -32.7,82.4 c -0.9,2.2 -1.6,3.6 -2.2,4.6 l -2.4,6 h 7 l 1.6,-4.2 c 0,-0.3 0.3,-1.2 1.3,-3.9 l 13.2,-33 h 24.6 l 16.8,41.1 h 18 v -3.2 h -1.2 c -2.9,0 -5,-1.5 -6.4,-4.5 z m -50,-38.2 10.4,-26.1 10.4,26.1 h -20.7 z"
     id="path13"
     style="stroke:none;stroke-width:1.00157;stroke-dasharray:none" />
  <path
     class="st2"
     d="m 36.7,321 c 7.4,-4.4 11.2,-10.3 11.2,-17.9 0,-7.6 -0.9,-7.3 -2.7,-10.3 -1.8,-3 -4,-5.3 -6.6,-6.9 -2.6,-1.6 -5.3,-2.7 -8.1,-3.2 -2.8,-0.6 -7.6,-0.8 -14.4,-0.8 H 0 v 89.3 h 27.3 c 6.5,0 11.6,-0.8 15.2,-2.3 3.6,-1.5 6.8,-4.6 9.6,-9.2 2.8,-4.6 4.2,-9.7 4.2,-15.3 0,-5.6 -1.6,-11.1 -4.9,-15.4 -3.3,-4.2 -8.1,-6.9 -14.5,-8 z M 9.4,283.7 h 2.4 c 7,0 12.2,0.8 15.8,2.3 3.6,1.5 6.3,3.8 8.2,6.8 1.9,3 2.8,6.8 2.8,11.2 0,4.4 -1.2,8.3 -3.6,12.5 -2.4,4.2 -7.3,6.3 -14.6,6.3 H 9.6 V 283.6 Z M 42.1,364 c -2.9,3.2 -7.8,4.8 -14.7,4.8 -6.9,0 -7.9,-0.4 -10.3,-1.2 -2.4,-0.8 -4.1,-1.8 -5.2,-3.1 -1.1,-1.3 -1.8,-2.5 -2.1,-3.7 -0.3,-1.2 -0.5,-3.7 -0.5,-7.6 v -28.3 h 7 c 8.5,0 14.4,0.4 17.6,1.3 3.2,0.9 6.1,3.4 8.6,7.5 2.5,4.1 3.8,9.5 3.8,16 0,6.5 -1.4,11.1 -4.3,14.3 z"
     id="path14"
     style="stroke:none;stroke-width:1.00157;stroke-dasharray:none" />
  <path
     class="st2"
     d="m 839,305.5 c -2.6,-5.5 -6.2,-10 -10.7,-13.5 -4.5,-3.5 -9.7,-6.1 -15.8,-7.7 -6,-1.6 -14.3,-2.5 -24.7,-2.5 h -35.2 v 89.3 h 36.2 c 10.9,0 18.9,-0.8 24.1,-2.5 5.2,-1.7 10.1,-4.8 14.8,-9.3 4.7,-4.5 8.4,-10 11.1,-16.2 2.7,-6.3 4.1,-12.7 4.1,-19.2 0,-6.5 -1.3,-12.9 -3.9,-18.3 z m -16.1,50.4 c -6.8,8.6 -18.5,12.9 -35.2,12.9 -16.7,0 -10.8,-0.5 -14.4,-1.4 -3.6,-0.9 -6.1,-2.5 -7.5,-4.6 -1.5,-2.1 -2.2,-5.4 -2.2,-9.7 v -69.3 h 13.7 c 18.7,0 32.6,4.4 41.9,13.1 9.3,8.7 13.9,19.1 13.9,31 0,11.9 -3.4,19.5 -10.2,28.1 z"
     id="path15"
     style="stroke:none;stroke-width:1.00157;stroke-dasharray:none" />
  <path
     class="st2"
     d="m 511.1,279 h -72.7 v 5.9 h 31.1 v 2.1 c 0,0 0,75.3 0,75.3 0,3.1 -0.4,5.1 -1.2,6.1 -0.8,1 -2.7,1.6 -5.7,1.8 v 0.9 h 24.2 v -0.9 c -1.9,0 -3.3,-0.2 -4.2,-0.5 -0.9,-0.3 -1.6,-1 -2.1,-2.2 -0.5,-1.2 -0.8,-3.3 -0.8,-6.5 v -76.2 c 0,0 31.2,0 31.2,0 v -5.9 z"
     id="path16"
     style="stroke:none;stroke-width:1.00157;stroke-dasharray:none" />
  <path
     style="fill:#455041;fill-opacity:1;fill-rule:nonzero;stroke:#455041;stroke-width:0.947804;stroke-dasharray:none;stroke-opacity:1"
     d="M 196.36014,114.03083 V 4.2584126 h 61.5104 61.5104 V 18.926278 c 0,8.067326 -0.34202,14.667866 -0.76005,14.667866 -0.41802,0 -1.74824,-3.087349 -2.95602,-6.860776 -3.29732,-10.301655 -5.23054,-13.59292 -8.69317,-14.800001 -2.03192,-0.708334 -16.53722,-1.050757 -44.5108,-1.050757 h -41.4966 v 49.68148 49.68148 h 43.05728 43.05728 v 2.83894 2.83894 H 264.02158 220.9643 v 37.31093 c 0,40.562 0.71196,49.84828 4.2945,56.01443 4.36736,7.51696 3.9687,7.45707 49.64539,7.45707 40.10544,0 40.22974,-0.006 44.2773,-2.16738 5.61121,-2.99623 7.56283,-6.38549 10.05888,-17.46863 0.32234,-1.4313 1.00381,-2.60236 1.51437,-2.60236 0.56691,0 0.92828,5.71008 0.92828,14.66786 v 14.66787 h -67.66144 -67.66144 z"
     id="path34" />
  <path
     style="fill:#455041;fill-opacity:1;fill-rule:nonzero;stroke:#455041;stroke-width:0.947804;stroke-dasharray:none;stroke-opacity:1"
     d="M 196.36014,114.03083 V 4.2584126 h 61.53606 61.53607 l -0.10425,14.1947084 c -0.0573,7.80709 -0.47824,14.194709 -0.93532,14.194709 -0.45709,0 -1.4457,-2.069711 -2.19693,-4.599356 -0.75122,-2.529647 -2.49762,-6.991713 -3.8809,-9.915704 -2.15331,-4.551743 -3.01692,-5.450682 -6.00473,-6.250394 -2.02611,-0.542309 -20.65491,-0.95525 -44.41777,-0.984602 l -40.92807,-0.05055 v 49.699175 49.699171 h 43.05728 43.05728 v 2.83894 2.83894 h -43.0862 -43.08619 l 0.0785,37.61598 c 0.0432,20.68879 0.4827,40.50585 0.97668,44.03792 1.11753,7.9906 4.77468,15.50145 8.26362,16.97135 4.36921,1.84077 5.31182,1.88254 45.21191,2.00364 l 38.85873,0.11794 4.67171,-2.36314 c 3.801,-1.9227 5.12734,-3.29476 7.11635,-7.36172 1.34456,-2.74922 2.49067,-5.51036 2.54691,-6.13588 0.0563,-0.62552 0.30756,-1.98899 0.55847,-3.02993 0.25092,-1.04095 0.48879,-2.23715 0.52861,-2.65822 0.0398,-0.42107 0.49825,-0.5024 1.01872,-0.18072 0.56256,0.34767 0.94631,6.31858 0.94631,14.72371 v 14.13886 h -67.66144 -67.66144 z"
     id="path35" />
  <path
     style="fill:#455041;fill-opacity:1;fill-rule:nonzero;stroke:#455041;stroke-width:0.947804;stroke-dasharray:none;stroke-opacity:1"
     d="m 1.4194709,222.85693 c 0,-0.52048 1.5041218,-0.94632 3.3424929,-0.94632 1.8383712,0 4.8345857,-0.62343 6.6582542,-1.38541 6.452748,-2.69614 6.139448,3.14298 5.862623,-109.26394 C 17.033732,10.107672 17.033001,10.073769 15.044718,7.4109023 13.950806,5.9458474 11.715139,4.424276 10.07657,4.0296324 0.71985891,1.7761012 2.1180822,1.6126994 30.755202,1.6130473 56.396249,1.6133588 59.836372,1.7744838 55.359364,2.7654327 48.569469,4.2683199 46.227078,5.6052284 44.486548,8.9710411 43.241634,11.37844 43.057283,23.147495 43.057283,100.2157 c 0,58.77557 0.336896,90.05166 1.00349,93.15988 1.483659,6.91807 6.274267,14.2763 11.298591,17.3543 8.577583,5.25482 13.830856,5.976 43.530439,5.976 26.180217,0 27.132907,-0.0657 32.535057,-2.24352 9.5334,-3.84329 15.63455,-11.00129 18.52434,-21.73315 0.60312,-2.23982 1.66068,-8.19447 2.35014,-13.23255 1.23772,-9.04438 1.25498,-8.82228 1.36512,17.57321 l 0.11155,26.73337 H 77.59774 c -50.154637,0 -76.1782691,-0.32327 -76.1782691,-0.94631 z"
     id="path36" />
  <path
     style="fill:#455041;fill-opacity:1;fill-rule:nonzero;stroke:#455041;stroke-width:0.947804;stroke-dasharray:none;stroke-opacity:1"
     d="M 431.62497,226.81342 C 431.02006,225.83465 350.6093,5.3702148 350.6093,4.6904817 c 0,-0.237638 8.41037,-0.3954669 18.6897,-0.3507309 11.76574,0.051205 17.70319,0.3774605 16.02684,0.8806539 -3.72366,1.1177368 -5.38081,2.705944 -5.38081,5.1569693 0,1.15608 3.36041,11.64351 7.46758,23.305399 12.42242,35.272214 52.30782,146.017457 53.13588,147.536337 0.61964,1.13659 0.94917,0.948 1.65355,-0.94631 0.48382,-1.30118 11.38753,-32.02701 24.23046,-68.27962 L 489.78328,46.079334 481.33059,24.932295 472.8779,3.7852556 486.19153,3.5217047 c 7.3225,-0.1449531 13.61326,0.067967 13.97949,0.4731569 0.36621,0.4051894 15.03788,40.5528654 32.60371,89.2170584 17.56583,48.66419 32.21747,88.79183 32.55919,89.17253 0.34172,0.3807 15.08653,-39.53752 32.76623,-88.707168 l 32.14491,-89.3993507 10.40946,0.034504 10.40945,0.034504 -4.64296,1.8130734 c -5.71929,2.2333864 -9.00988,5.3029523 -12.43912,11.6036023 -1.45204,2.667851 -18.91093,50.776491 -38.79756,106.908085 -19.88662,56.1316 -36.40346,102.30341 -36.70408,102.60403 -0.30062,0.30061 -1.09724,0.31734 -1.77028,0.0371 -0.67304,-0.28018 -14.83457,-38.23267 -31.47007,-84.33884 -16.63548,-46.106184 -30.47533,-83.825862 -30.7552,-83.821512 -0.27986,0.0043 -13.9287,37.764225 -30.33074,83.910842 -16.40204,46.14661 -30.30932,84.0654 -30.90506,84.26398 -0.59574,0.19857 -1.32651,-0.0327 -1.62393,-0.51393 z"
     id="path37" />
  <path
     style="fill:#455041;fill-opacity:1;fill-rule:nonzero;stroke:#455041;stroke-width:0.947804;stroke-dasharray:none;stroke-opacity:1"
     d="m 647.7703,219.02491 c 1.03589,-2.62808 2.67328,-6.35419 3.63864,-8.28024 0.96535,-1.92607 20.19173,-50.02508 42.72528,-106.88672 32.11379,-81.036633 41.32051,-103.38479305 42.59116,-103.38479305 1.25082,0 5.25209,9.02384315 17.51856,39.50860605 8.74362,21.729733 26.95741,66.762447 40.4751,100.072697 13.51769,33.31025 25.68973,63.33206 27.04899,66.71513 3.27616,8.15405 8.42462,13.32134 15.26236,15.31817 5.12468,1.49658 4.93889,1.51367 -14.99104,1.37884 l -20.18004,-0.13652 -20.14655,-50.15463 -20.14655,-50.15464 -33.0616,-0.24848 -33.06161,-0.24847 -19.74816,50.63969 -19.74816,50.63969 h -5.02991 -5.02991 z M 758.31288,116.01552 c -4.5939,-12.44085 -29.74458,-74.850865 -30.16422,-74.850865 -0.51774,0 -27.97817,68.009485 -29.70801,73.575905 l -0.66168,2.12921 h 30.42467 c 17.69911,0 30.29274,-0.3573 30.10924,-0.85425 z"
     id="path38" />
  <path
     style="fill:#455041;fill-opacity:1;fill-rule:nonzero;stroke:#455041;stroke-width:0.947804;stroke-dasharray:none;stroke-opacity:1"
     d="m 590.40636,367.40637 c 1.22945,-2.73248 9.63151,-23.60526 18.67125,-46.38396 11.01418,-27.754 16.84891,-41.33297 17.68796,-41.16466 0.68864,0.13814 8.99669,19.48036 18.46233,42.9827 9.46564,23.50234 18.01734,43.62334 19.00376,44.71333 0.98643,1.08999 2.57919,1.9818 3.53947,1.9818 0.96028,0 1.74596,0.63876 1.74596,1.41947 0,1.15429 -1.5568,1.41947 -8.33331,1.41947 h -8.3333 l -8.46377,-20.80883 -8.46376,-20.80883 -12.77524,-0.009 -12.77524,-0.009 -7.80709,19.83389 c -4.2939,10.90864 -7.80709,20.27688 -7.80709,20.81831 0,0.54144 -1.48214,0.98443 -3.29365,0.98443 h -3.29365 z m 43.1508,-41.67196 c 0,-2.17188 -10.12361,-26.50783 -10.66362,-25.63407 -0.99369,1.60782 -10.15528,24.99184 -10.15528,25.9203 0,0.5538 4.21621,0.93082 10.40945,0.93082 7.85246,0 10.40945,-0.29896 10.40945,-1.21705 z"
     id="path39" />
  <path
     style="fill:#455041;fill-opacity:1;fill-rule:nonzero;stroke:#455041;stroke-width:0.947804;stroke-dasharray:none;stroke-opacity:1"
     d="m 752.79271,326.39206 v -44.08984 l 27.20653,0.40291 c 28.76925,0.42606 31.85203,0.84883 41.40123,5.67777 15.73222,7.95564 23.82358,25.88706 19.96572,44.24644 -2.81192,13.38179 -11.11096,25.66933 -21.58096,31.95268 -8.23877,4.94432 -14.90718,5.86475 -42.62493,5.88344 l -24.36759,0.0164 z m 45.03918,42.12491 c 4.02797,-0.56024 9.69804,-1.90702 12.60016,-2.99284 7.1453,-2.6734 15.20657,-10.77041 19.27553,-19.36098 2.90705,-6.13749 3.04866,-6.96392 3.04866,-17.79222 0,-10.82355 -0.1426,-11.65681 -3.04245,-17.77897 -3.98535,-8.41384 -12.0631,-16.88346 -19.59744,-20.54819 -9.31387,-4.53029 -15.77101,-5.81448 -32.00974,-6.36606 l -14.90444,-0.50625 v 37.53457 c 0,40.38409 0.24397,42.63676 4.88803,45.13334 6.82967,3.67151 16.40062,4.53317 29.74169,2.6776 z"
     id="path40" />
  <path
     style="fill:#455041;fill-opacity:1;fill-rule:nonzero;stroke:#455041;stroke-width:0.947804;stroke-dasharray:none;stroke-opacity:1"
     d="m 468.27872,368.75133 c 1.40698,-1.5547 1.56614,-5.93032 1.56614,-43.05728 V 284.36733 H 454.23068 438.6165 v -2.36579 -2.36578 h 35.95992 35.95993 v 2.36578 2.36579 h -15.61418 -15.61418 v 40.95409 c 0,35.53508 0.19493,41.23239 1.47314,43.05729 l 1.47313,2.10319 h -7.77084 c -7.46832,0 -7.70987,-0.0674 -6.2047,-1.73057 z"
     id="path41" />
  <path
     style="fill:#455041;fill-opacity:1;fill-rule:nonzero;stroke:#455041;stroke-width:0.947804;stroke-dasharray:none;stroke-opacity:1"
     d="m 309.07517,359.9379 c 0.0836,-8.66645 0.25938,-9.95709 0.90759,-6.66401 1.98529,10.08575 8.31084,14.50089 21.6867,15.13698 4.43757,0.21103 9.8696,-0.10585 12.09149,-0.70535 7.48053,-2.01839 14.3773,-10.44639 14.3773,-17.56937 0,-3.91667 -2.99891,-10.1594 -6.0232,-12.53831 -1.38451,-1.08906 -5.80288,-3.31037 -9.81861,-4.93626 -17.44268,-7.0622 -19.64359,-8.1113 -22.76352,-10.85063 -3.96437,-3.48077 -7.70055,-11.10655 -7.71324,-15.74322 -0.0145,-5.29829 2.49428,-12.37056 5.81097,-16.38117 4.5581,-5.51173 11.00968,-8.13765 20.02095,-8.14893 10.00856,-0.0125 15.47625,1.42433 16.18636,4.2536 0.30169,1.20204 0.83943,2.94362 1.19499,3.87018 0.51166,1.33337 -0.0301,1.17767 -2.59833,-0.74668 -5.97329,-4.47582 -8.96515,-5.49371 -16.14741,-5.49371 -12.33073,0 -19.60576,5.8462 -20.48616,16.46266 -0.8103,9.77115 3.0007,13.40143 21.16866,20.16486 12.66178,4.71363 16.1286,6.8201 20.58152,12.50554 6.84036,8.73369 5.39675,22.34515 -3.30974,31.20688 -5.41345,5.50997 -7.87486,6.09394 -27.52661,6.53068 l -17.74339,0.39433 z"
     id="path42" />
  <path
     style="fill:#455041;fill-opacity:1;fill-rule:nonzero;stroke:#455041;stroke-width:0.947804;stroke-dasharray:none;stroke-opacity:1"
     d="m 170.80966,371.32558 c -22.14211,-3.79427 -36.77871,-24.38472 -33.28915,-46.83044 1.05591,-6.79186 4.4539,-16.30449 7.46645,-20.90222 2.29351,-3.50035 2.39347,-2.00305 0.19767,2.96092 -2.31541,5.23438 -2.7717,19.01965 -0.86404,26.10417 3.15423,11.71391 13.98677,25.47568 24.41748,31.02022 14.70314,7.8156 32.38907,5.06854 44.18256,-6.86264 7.20753,-7.29169 10.18263,-13.57168 10.70509,-22.5969 1.14063,-19.70363 -8.40438,-35.17063 -27.57863,-44.68923 -8.36743,-4.1538 -9.5094,-4.46732 -16.4057,-4.50402 -8.91753,-0.0475 -15.73889,2.00912 -21.66322,6.53126 -4.72479,3.60651 -6.30264,4.17129 -3.73879,1.33827 9.17024,-10.133 30.91766,-14.53588 47.0156,-9.51857 6.89932,2.15034 15.62697,8.14246 20.01512,13.74171 9.17938,11.71287 9.72049,31.61999 1.32318,48.67928 -8.80409,17.88568 -31.39422,29.02212 -51.78362,25.52819 z"
     id="path43" />
  <path
     style="fill:#455041;fill-opacity:1;fill-rule:nonzero;stroke:#455041;stroke-width:0.947804;stroke-dasharray:none;stroke-opacity:1"
     d="m 0.47315695,326.39688 v -44.08502 l 15.37760105,0.318 c 14.165458,0.29293 15.750019,0.50448 20.102208,2.68378 12.890685,6.45484 15.307387,21.22279 5.137291,31.39289 l -4.475337,4.47533 4.567984,1.51724 c 5.379406,1.78676 11.445319,7.83426 13.204401,13.16433 1.787752,5.41694 0.912235,16.26755 -1.724315,21.37007 -5.957594,11.52974 -10.479156,13.2484 -34.854783,13.2484 H 0.47315695 Z M 38.13191,367.27002 c 6.430125,-3.32515 9.255546,-10.33671 8.390021,-20.82066 -0.637423,-7.72098 -4.157889,-15.67605 -8.216187,-18.56581 -2.899173,-2.06439 -13.592927,-3.75028 -23.874457,-3.76385 l -5.4413049,-0.007 v 18.02696 c 0,22.32346 0.6821712,24.14812 9.9362959,26.57737 4.259553,1.11815 15.948318,0.2376 19.205632,-1.44682 z m -6.706298,-46.57588 c 1.452929,-1.07471 3.706292,-3.83257 5.007473,-6.12859 1.925939,-3.39845 2.35464,-5.40616 2.305834,-10.79879 C 38.614852,290.058 30.593095,283.42102 14.14813,283.42102 H 8.9899821 v 19.97992 19.97992 l 9.8969709,-0.36636 c 8.145801,-0.30153 10.364392,-0.7121 12.538659,-2.32036 z"
     id="path44" />
</svg>
