<?xml version="1.0" encoding="UTF-8" standalone="no"?>
<svg
   id="Layer_1"
   version="1.1"
   viewBox="0 0 842.90002 372.5"
   sodipodi:docname="lewa_bostad_logo_grön_recolored.svg"
   width="842.90002"
   height="372.5"
   xmlns:inkscape="http://www.inkscape.org/namespaces/inkscape"
   xmlns:sodipodi="http://sodipodi.sourceforge.net/DTD/sodipodi-0.dtd"
   xmlns="http://www.w3.org/2000/svg"
   xmlns:svg="http://www.w3.org/2000/svg">
  <sodipodi:namedview
     id="namedview16"
     pagecolor="#ffffff"
     bordercolor="#000000"
     borderopacity="0.25"
     inkscape:showpageshadow="2"
     inkscape:pageopacity="0.0"
     inkscape:pagecheckerboard="0"
     inkscape:deskcolor="#d1d1d1"
     showgrid="false">
    <inkscape:page
       x="0"
       y="0"
       width="842.90002"
       height="372.5"
       id="page2"
       margin="0"
       bleed="0" />
  </sodipodi:namedview>
  <!-- Generator: Adobe Illustrator 29.8.7, SVG Export Plug-In . SVG Version: 2.1.1 Build 1)  -->
  <defs
     id="defs1">
    <style
       id="style1">
      .st0 {
        fill: none;
      }

      .st1 {
        font-size: 120px;
      }

      .st2, .st3 {
        fill: #646b63;
      }

      .st4 {
        font-size: 48px;
      }

      .st3 {
        font-family: FelixTitlingMT, 'Felix Titling';
      }
    </style>
  </defs>
  <path
     class="st2"
     d="m 329.2,194 c -1.3,8.5 -3.1,14.1 -5.5,16.6 -2.4,2.5 -5.3,4.2 -8.8,5.1 -3.4,0.8 -11.4,1.3 -23.7,1.3 h -38.9 c -8.4,0 -14.7,-0.6 -18.8,-1.7 -4.1,-1.1 -7.2,-4 -9.1,-8.5 -1.9,-4.5 -2.8,-12 -2.8,-22.3 v -68.2 h 85.5 v -6.2 h -15.5 c -0.7,0 -1.5,0 -2.3,0 H 221.7 V 11 h 72.9 c 8,0 13,1 15.1,3 2,2 4.6,8.6 7.6,19.9 h 2.2 V 3.5 H 196.1 v 18.9 c 0,1.8 0.1,3.7 0.1,5.7 v 178.3 c 0,1.2 0,2.3 -0.1,3.4 v 14.6 h 135.6 v -30.3 h -2.2 z"
     id="path1"
     style="stroke:none;stroke-width:1.00157;stroke-dasharray:none" />
  <path
     class="st2"
     d="M 630.1,3.3 565.6,182.4 500.8,3.3 h -28.7 l 6.2,15.5 c 0,0 0,0 0,0 l 10.9,27.3 -48.1,135.7 c 0,0 -60.9,-168.5 -60.9,-170.7 0,-3.7 2.5,-5.5 7.6,-5.5 V 3.4 h -38.4 l 81.8,224.4 h 3.4 l 59.9,-168.4 61,168.4 h 3.7 L 630.3,27.1 c 5.1,-14.2 12,-21.3 20.8,-21.4 V 3.5 h -20.8 z"
     id="path2"
     style="stroke:none;stroke-width:1.00157;stroke-dasharray:none" />
  <path
     class="st2"
     d="M 823.5,209.3 C 819.5,200.8 738.7,0 738.7,0 h -4 l -80.1,202 c -1.5,3.9 -3,7.1 -4.5,9.7 l -5,12.6 h 11.2 L 696,122.6 h 64.8 l 31.9,79.4 0.8,2 2.4,6 5.7,14.3 h 40.2 v -2.2 c -8.3,0 -14.4,-4.2 -18.5,-12.7 z m -125.3,-92.9 29.9,-75.3 29.8,75.3 z"
     id="path3"
     style="stroke:none;stroke-width:1.00157;stroke-dasharray:none" />
  <path
     class="st2"
     d="m 152.4,170.5 c -0.7,17.9 -4.1,30.1 -10.2,36.5 -6.1,6.5 -15.7,9.7 -28.8,9.7 H 86.1 c -15.7,0 -26.7,-2.8 -33.2,-8.3 -6.5,-5.5 -9.7,-15 -9.7,-28.4 V 23.2 c 0,-6.8 0.4,-11.1 1.1,-13 0.7,-1.9 2.2,-3.6 4.4,-5 2.2,-1.4 6.1,-2.1 11.7,-2.1 V 0.8 H 0.5 v 2.3 c 8.1,0.2 12.9,1.7 14.6,4.6 1.6,2.9 2.4,7.6 2.4,14 v 182.8 c 0,6.4 -1,10.9 -3.1,13.5 -2.1,2.6 -6.6,3.9 -13.6,3.9 v 2.3 h 153.9 v -53.7 z"
     id="path4"
     style="stroke:none;stroke-width:1.00157;stroke-dasharray:none" />
  <path
     class="st0"
     d="m 34,326.2 c -3.2,-0.9 -9.1,-1.3 -17.6,-1.3 h -7 v 28.3 c 0,3.9 0.2,6.5 0.5,7.6 0.3,1.2 1,2.4 2.1,3.7 1.1,1.3 2.8,2.3 5.2,3.1 2.4,0.8 5.8,1.2 10.3,1.2 7,0 11.9,-1.6 14.7,-4.8 2.9,-3.2 4.3,-8 4.3,-14.3 0,-6.3 -1.3,-11.9 -3.8,-16 -2.5,-4.1 -5.4,-6.6 -8.6,-7.5 z"
     id="path7"
     style="stroke:none;stroke-width:1.00157;stroke-dasharray:none" />
  <polygon
     class="st0"
     points="731.9,672.7 752.7,672.7 742.3,646.6 "
     id="polygon7"
     transform="translate(-119.1,-346.3)"
     style="stroke:none;stroke-width:1.00157;stroke-dasharray:none" />
  <path
     class="st0"
     d="m 34.9,316.7 c 2.4,-4.2 3.6,-8.4 3.6,-12.5 0,-4.1 -0.9,-8.2 -2.8,-11.2 -1.9,-3 -4.6,-5.3 -8.2,-6.8 -3.6,-1.5 -8.8,-2.3 -15.8,-2.3 H 9.3 v 39.2 h 10.8 c 7.4,0 12.2,-2.1 14.6,-6.3 z"
     id="path8"
     style="stroke:none;stroke-width:1.00157;stroke-dasharray:none" />
  <path
     class="st0"
     d="m 198.6,291.3 c -7.4,-4 -14.2,-6 -20.5,-6 -6.3,0 -16.9,3.3 -24.1,10 -7.2,6.7 -10.8,15 -10.8,24.9 0,9.9 4.4,23.8 13.2,33.3 8.8,9.6 18.7,14.4 29.6,14.4 10.9,0 12.2,-1.6 18.2,-4.9 6,-3.3 10.7,-7.8 14.1,-13.6 3.4,-5.8 5.2,-11.7 5.2,-17.8 0,-8.6 -2.3,-16.5 -6.9,-23.6 -4.6,-7.1 -10.6,-12.6 -18,-16.6 z"
     id="path9"
     style="stroke:none;stroke-width:1.00157;stroke-dasharray:none" />
  <path
     class="st0"
     d="M 819.2,296.8 C 809.9,288.1 796,283.7 777.3,283.7 H 763.6 V 353 c 0,4.4 0.7,7.6 2.2,9.7 1.5,2.1 4,3.7 7.5,4.6 3.6,0.9 8.3,1.4 14.4,1.4 16.7,0 28.5,-4.3 35.2,-12.9 6.8,-8.6 10.2,-18 10.2,-28.1 0,-10.1 -4.6,-22.2 -13.9,-31 z"
     id="path10"
     style="stroke:none;stroke-width:1.00157;stroke-dasharray:none" />
  <path
     class="st2"
     d="m 186.5,280.5 c -10.5,0 -19.5,2.5 -27.2,7.6 -7.6,5.1 -13.4,11.6 -17.2,19.7 -3.8,8 -5.7,15.9 -5.7,23.5 0,11.3 3.9,21 11.8,29.1 7.9,8.1 18,12.1 30.4,12.1 12.4,0 27.5,-5 36.7,-15 9.2,-10 13.8,-22.4 13.8,-37 0,-14.6 -4,-20.9 -11.9,-28.5 -8,-7.6 -18.2,-11.4 -30.7,-11.4 z m 31.9,68.8 c -3.4,5.8 -8.1,10.3 -14.1,13.6 -6,3.3 -12,4.9 -18.2,4.9 -11,0 -20.8,-4.8 -29.6,-14.4 -8.8,-9.6 -13.2,-20.7 -13.2,-33.3 0,-12.6 3.6,-18.2 10.8,-24.9 7.2,-6.7 15.2,-10 24.1,-10 8.9,0 13.1,2 20.5,6 7.4,4 13.4,9.5 18,16.6 4.6,7.1 6.9,14.9 6.9,23.6 0,8.7 -1.7,12 -5.2,17.8 z"
     id="path11"
     style="stroke:none;stroke-width:1.00157;stroke-dasharray:none" />
  <path
     class="st2"
     d="m 347.8,323.6 c -3.4,-1.6 -9.7,-3.9 -18.8,-7 -5.3,-2.1 -8.8,-4.4 -10.5,-6.8 -1.7,-2.4 -2.5,-5.3 -2.5,-8.6 0,-4.9 1.8,-9.1 5.4,-12.6 3.6,-3.5 8.4,-5.2 14.5,-5.2 6.1,0 6.9,0.6 9.8,1.9 2.9,1.3 5.5,3.1 7.7,5.4 2.2,2.3 3.4,3.5 3.4,3.6 h 0.7 c 0,-0.1 -4.2,-11.3 -4.2,-11.3 -0.2,0 -0.3,0 -0.5,-0.1 -0.4,-0.2 -2.3,-0.6 -5.8,-1.3 -3.5,-0.7 -6.7,-1 -9.7,-1 -7.7,0 -14,2.3 -18.7,7 -4.7,4.7 -7.1,10.5 -7.1,17.4 0,6.9 0.9,7.4 2.8,11.1 1.9,3.6 4.2,6.3 6.9,8.1 2.8,1.8 7.6,3.9 14.4,6.3 6.9,2.4 11.5,4.4 14,6 2.5,1.6 4.4,3.5 5.8,5.7 1.4,2.2 2.1,4.8 2.1,7.8 0,5.1 -2,9.4 -5.9,13 -3.9,3.6 -9.7,5.4 -17.3,5.4 -7.6,0 -14.5,-1.7 -18.5,-5.1 -4,-3.4 -6,-9.4 -6.1,-18 h -0.9 v 25.9 h 23.8 c 1.3,0 3.8,-0.2 7.8,-0.7 3.9,-0.4 6.8,-1.1 8.6,-2 1.8,-0.9 3.6,-2.1 5.4,-3.8 1.8,-1.7 3.3,-3.5 4.5,-5.6 1.3,-2 2.2,-4.2 2.7,-6.4 0.6,-2.2 0.8,-4.5 0.8,-6.9 0,-5.8 -1.6,-10.6 -4.7,-14.3 -3.1,-3.7 -6.4,-6.3 -9.8,-7.9 z"
     id="path12"
     style="stroke:none;stroke-width:1.00157;stroke-dasharray:none" />
  <path
     class="st2"
     d="m 662.8,364.6 c -2,-4.3 -2.3,-5.2 -2.3,-5.2 l -32.2,-80 h -3.2 l -32.7,82.4 c -0.9,2.2 -1.6,3.6 -2.2,4.6 l -2.4,6 h 7 l 1.6,-4.2 c 0,-0.3 0.3,-1.2 1.3,-3.9 l 13.2,-33 h 24.6 l 16.8,41.1 h 18 v -3.2 h -1.2 c -2.9,0 -5,-1.5 -6.4,-4.5 z m -50,-38.2 10.4,-26.1 10.4,26.1 h -20.7 z"
     id="path13"
     style="stroke:none;stroke-width:1.00157;stroke-dasharray:none" />
  <path
     class="st2"
     d="m 36.7,321 c 7.4,-4.4 11.2,-10.3 11.2,-17.9 0,-7.6 -0.9,-7.3 -2.7,-10.3 -1.8,-3 -4,-5.3 -6.6,-6.9 -2.6,-1.6 -5.3,-2.7 -8.1,-3.2 -2.8,-0.6 -7.6,-0.8 -14.4,-0.8 H 0 v 89.3 h 27.3 c 6.5,0 11.6,-0.8 15.2,-2.3 3.6,-1.5 6.8,-4.6 9.6,-9.2 2.8,-4.6 4.2,-9.7 4.2,-15.3 0,-5.6 -1.6,-11.1 -4.9,-15.4 -3.3,-4.2 -8.1,-6.9 -14.5,-8 z M 9.4,283.7 h 2.4 c 7,0 12.2,0.8 15.8,2.3 3.6,1.5 6.3,3.8 8.2,6.8 1.9,3 2.8,6.8 2.8,11.2 0,4.4 -1.2,8.3 -3.6,12.5 -2.4,4.2 -7.3,6.3 -14.6,6.3 H 9.6 V 283.6 Z M 42.1,364 c -2.9,3.2 -7.8,4.8 -14.7,4.8 -6.9,0 -7.9,-0.4 -10.3,-1.2 -2.4,-0.8 -4.1,-1.8 -5.2,-3.1 -1.1,-1.3 -1.8,-2.5 -2.1,-3.7 -0.3,-1.2 -0.5,-3.7 -0.5,-7.6 v -28.3 h 7 c 8.5,0 14.4,0.4 17.6,1.3 3.2,0.9 6.1,3.4 8.6,7.5 2.5,4.1 3.8,9.5 3.8,16 0,6.5 -1.4,11.1 -4.3,14.3 z"
     id="path14"
     style="stroke:none;stroke-width:1.00157;stroke-dasharray:none" />
  <path
     class="st2"
     d="m 839,305.5 c -2.6,-5.5 -6.2,-10 -10.7,-13.5 -4.5,-3.5 -9.7,-6.1 -15.8,-7.7 -6,-1.6 -14.3,-2.5 -24.7,-2.5 h -35.2 v 89.3 h 36.2 c 10.9,0 18.9,-0.8 24.1,-2.5 5.2,-1.7 10.1,-4.8 14.8,-9.3 4.7,-4.5 8.4,-10 11.1,-16.2 2.7,-6.3 4.1,-12.7 4.1,-19.2 0,-6.5 -1.3,-12.9 -3.9,-18.3 z m -16.1,50.4 c -6.8,8.6 -18.5,12.9 -35.2,12.9 -16.7,0 -10.8,-0.5 -14.4,-1.4 -3.6,-0.9 -6.1,-2.5 -7.5,-4.6 -1.5,-2.1 -2.2,-5.4 -2.2,-9.7 v -69.3 h 13.7 c 18.7,0 32.6,4.4 41.9,13.1 9.3,8.7 13.9,19.1 13.9,31 0,11.9 -3.4,19.5 -10.2,28.1 z"
     id="path15"
     style="stroke:none;stroke-width:1.00157;stroke-dasharray:none" />
  <path
     class="st2"
     d="m 511.1,279 h -72.7 v 5.9 h 31.1 v 2.1 c 0,0 0,75.3 0,75.3 0,3.1 -0.4,5.1 -1.2,6.1 -0.8,1 -2.7,1.6 -5.7,1.8 v 0.9 h 24.2 v -0.9 c -1.9,0 -3.3,-0.2 -4.2,-0.5 -0.9,-0.3 -1.6,-1 -2.1,-2.2 -0.5,-1.2 -0.8,-3.3 -0.8,-6.5 v -76.2 c 0,0 31.2,0 31.2,0 v -5.9 z"
     id="path16"
     style="stroke:none;stroke-width:1.00157;stroke-dasharray:none" />
  <path
     style="fill:#455041;fill-opacity:1;fill-rule:nonzero;stroke:#455041;stroke-width:0.947804;stroke-dasharray:none;stroke-opacity:1"
     d="M 196.36014,114.03083 V 4.2584126 h 61.5104 61.5104 V 18.926278 c 0,8.067326 -0.34202,14.667866 -0.76005,14.667866 -0.41802,0 -1.74824,-3.087349 -2.95602,-6.860776 -3.29732,-10.301655 -5.23054,-13.59292 -8.69317,-14.800001 -2.03192,-0.708334 -16.53722,-1.050757 -44.5108,-1.050757 h -41.4966 v 49.68148 49.68148 h 43.05728 43.05728 v 2.83894 2.83894 H 264.02158 220.9643 v 37.31093 c 0,40.562 0.71196,49.84828 4.2945,56.01443 4.36736,7.51696 3.9687,7.45707 49.64539,7.45707 40.10544,0 40.22974,-0.006 44.2773,-2.16738 5.61121,-2.99623 7.56283,-6.38549 10.05888,-17.46863 0.32234,-1.4313 1.00381,-2.60236 1.51437,-2.60236 0.56691,0 0.92828,5.71008 0.92828,14.66786 v 14.66787 h -67.66144 -67.66144 z"
     id="path34" />
  <path
     style="fill:#455041;fill-opacity:1;fill-rule:nonzero;stroke:#455041;stroke-width:0.947804;stroke-dasharray:none;stroke-opacity:1"
     d="M 196.36014,114.03083 V 4.2584126 h 61.53606 61.53607 l -0.10425,14.1947084 c -0.0573,7.80709 -0.47824,14.194709 -0.93532,14.194709 -0.45709,0 -1.4457,-2.069711 -2.19693,-4.599356 -0.75122,-2.529647 -2.49762,-6.991713 -3.8809,-9.915704 -2.15331,-4.551743 -3.01692,-5.450682 -6.00473,-6.250394 -2.02611,-0.542309 -20.65491,-0.95525 -44.41777,-0.984602 l -40.92807,-0.05055 v 49.699175 49.699171 h 43.05728 43.05728 v 2.83894 2.83894 h -43.0862 -43.08619 l 0.0785,37.61598 c 0.0432,20.68879 0.4827,40.50585 0.97668,44.03792 1.11753,7.9906 4.77468,15.50145 8.26362,16.97135 4.36921,1.84077 5.31182,1.88254 45.21191,2.00364 l 38.85873,0.11794 4.67171,-2.36314 c 3.801,-1.9227 5.12734,-3.29476 7.11635,-7.36172 1.34456,-2.74922 2.49067,-5.51036 2.54691,-6.13588 0.0563,-0.62552 0.30756,-1.98899 0.55847,-3.02993 0.25092,-1.04095 0.48879,-2.23715 0.52861,-2.65822 0.0398,-0.42107 0.49825,-0.5024 1.01872,-0.18072 0.56256,0.34767 0.94631,6.31858 0.94631,14.72371 v 14.13886 h -67.66144 -67.66144 z"
     id="path35" />
  <path
     style="fill:#455041;fill-opacity:1;fill-rule:nonzero;stroke:#455041;stroke-width:0.947804;stroke-dasharray:none;stroke-opacity:1"
     d="m 1.4194709,222.85693 c 0,-0.52048 1.5041218,-0.94632 3.3424929,-0.94632 1.8383712,0 4.8345857,-0.62343 6.6582542,-1.38541 6.452748,-2.69614 6.139448,3.14298 5.862623,-109.26394 C 17.033732,10.107672 17.033001,10.073769 15.044718,7.4109023 13.950806,5.9458474 11.715139,4.424276 10.07657,4.0296324 0.71985891,1.7761012 2.1180822,1.6126994 30.755202,1.6130473 56.396249,1.6133588 59.836372,1.7744838 55.359364,2.7654327 48.569469,4.2683199 46.227078,5.6052284 44.486548,8.9710411 43.241634,11.37844 43.057283,23.147495 43.057283,100.2157 c 0,58.77557 0.336896,90.05166 1.00349,93.15988 1.483659,6.91807 6.274267,14.2763 11.298591,17.3543 8.577583,5.25482 13.830856,5.976 43.530439,5.976 26.180217,0 27.132907,-0.0657 32.535057,-2.24352 9.5334,-3.84329 15.63455,-11.00129 18.52434,-21.73315 0.60312,-2.23982 1.66068,-8.19447 2.35014,-13.23255 1.23772,-9.04438 1.25498,-8.82228 1.36512,17.57321 l 0.11155,26.73337 H 77.59774 c -50.154637,0 -76.1782691,-0.32327 -76.1782691,-0.94631 z"
     id="path36" />
  <path
     style="fill:#455041;fill-opacity:1;fill-rule:nonzero;stroke:#455041;stroke-width:0.947804;stroke-dasharray:none;stroke-opacity:1"
     d="M 431.62497,226.81342 C 431.02006,225.83465 350.6093,5.3702148 350.6093,4.6904817 c 0,-0.237638 8.41037,-0.3954669 18.6897,-0.3507309 11.76574,0.051205 17.70319,0.3774605 16.02684,0.8806539 -3.72366,1.1177368 -5.38081,2.705944 -5.38081,5.1569693 0,1.15608 3.36041,11.64351 7.46758,23.305399 12.42242,35.272214 52.30782,146.017457 53.13588,147.536337 0.61964,1.13659 0.94917,0.948 1.65355,-0.94631 0.48382,-1.30118 11.38753,-32.02701 24.23046,-68.27962 L 489.78328,46.079334 481.33059,24.932295 472.8779,3.7852556 486.19153,3.5217047 c 7.3225,-0.1449531 13.61326,0.067967 13.97949,0.4731569 0.36621,0.4051894 15.03788,40.5528654 32.60371,89.2170584 17.56583,48.66419 32.21747,88.79183 32.55919,89.17253 0.34172,0.3807 15.08653,-39.53752 32.76623,-88.707168 l 32.14491,-89.3993507 10.40946,0.034504 10.40945,0.034504 -4.64296,1.8130734 c -5.71929,2.2333864 -9.00988,5.3029523 -12.43912,11.6036023 -1.45204,2.667851 -18.91093,50.776491 -38.79756,106.908085 -19.88662,56.1316 -36.40346,102.30341 -36.70408,102.60403 -0.30062,0.30061 -1.09724,0.31734 -1.77028,0.0371 -0.67304,-0.28018 -14.83457,-38.23267 -31.47007,-84.33884 -16.63548,-46.106184 -30.47533,-83.825862 -30.7552,-83.821512 -0.27986,0.0043 -13.9287,37.764225 -30.33074,83.910842 -16.40204,46.14661 -30.30932,84.0654 -30.90506,84.26398 -0.59574,0.19857 -1.32651,-0.0327 -1.62393,-0.51393 z"
     id="path37" />
  <path
     style="fill:#455041;fill-opacity:1;fill-rule:nonzero;stroke:#455041;stroke-width:0.947804;stroke-dasharray:none;stroke-opacity:1"
     d="m 647.7703,219.02491 c 1.03589,-2.62808 2.67328,-6.35419 3.63864,-8.28024 0.96535,-1.92607 20.19173,-50.02508 42.72528,-106.88672 32.11379,-81.036633 41.32051,-103.38479305 42.59116,-103.38479305 1.25082,0 5.25209,9.02384315 17.51856,39.50860605 8.74362,21.729733 26.95741,66.762447 40.4751,100.072697 13.51769,33.31025 25.68973,63.33206 27.04899,66.71513 3.27616,8.15405 8.42462,13.32134 15.26236,15.31817 5.12468,1.49658 4.93889,1.51367 -14.99104,1.37884 l -20.18004,-0.13652 -20.14655,-50.15463 -20.14655,-50.15464 -33.0616,-0.24848 -33.06161,-0.24847 -19.74816,50.63969 -19.74816,50.63969 h -5.02991 -5.02991 z M 758.31288,116.01552 c -4.5939,-12.44085 -29.74458,-74.850865 -30.16422,-74.850865 -0.51774,0 -27.97817,68.009485 -29.70801,73.575905 l -0.66168,2.12921 h 30.42467 c 17.69911,0 30.29274,-0.3573 30.10924,-0.85425 z"
     id="path38" />
  <path
     style="fill:#455041;fill-opacity:1;fill-rule:nonzero;stroke:#455041;stroke-width:0.947804;stroke-dasharray:none;stroke-opacity:1"
     d="m 590.40636,367.40637 c 1.22945,-2.73248 9.63151,-23.60526 18.67125,-46.38396 11.01418,-27.754 16.84891,-41.33297 17.68796,-41.16466 0.68864,0.13814 8.99669,19.48036 18.46233,42.9827 9.46564,23.50234 18.01734,43.62334 19.00376,44.71333 0.98643,1.08999 2.57919,1.9818 3.53947,1.9818 0.96028,0 1.74596,0.63876 1.74596,1.41947 0,1.15429 -1.5568,1.41947 -8.33331,1.41947 h -8.3333 l -8.46377,-20.80883 -8.46376,-20.80883 -12.77524,-0.009 -12.77524,-0.009 -7.80709,19.83389 c -4.2939,10.90864 -7.80709,20.27688 -7.80709,20.81831 0,0.54144 -1.48214,0.98443 -3.29365,0.98443 h -3.29365 z m 43.1508,-41.67196 c 0,-2.17188 -10.12361,-26.50783 -10.66362,-25.63407 -0.99369,1.60782 -10.15528,24.99184 -10.15528,25.9203 0,0.5538 4.21621,0.93082 10.40945,0.93082 7.85246,0 10.40945,-0.29896 10.40945,-1.21705 z"
     id="path39" />
  <path
     style="fill:#455041;fill-opacity:1;fill-rule:nonzero;stroke:#455041;stroke-width:0.947804;stroke-dasharray:none;stroke-opacity:1"
     d="m 752.79271,326.39206 v -44.08984 l 27.20653,0.40291 c 28.76925,0.42606 31.85203,0.84883 41.40123,5.67777 15.73222,7.95564 23.82358,25.88706 19.96572,44.24644 -2.81192,13.38179 -11.11096,25.66933 -21.58096,31.95268 -8.23877,4.94432 -14.90718,5.86475 -42.62493,5.88344 l -24.36759,0.0164 z m 45.03918,42.12491 c 4.02797,-0.56024 9.69804,-1.90702 12.60016,-2.99284 7.1453,-2.6734 15.20657,-10.77041 19.27553,-19.36098 2.90705,-6.13749 3.04866,-6.96392 3.04866,-17.79222 0,-10.82355 -0.1426,-11.65681 -3.04245,-17.77897 -3.98535,-8.41384 -12.0631,-16.88346 -19.59744,-20.54819 -9.31387,-4.53029 -15.77101,-5.81448 -32.00974,-6.36606 l -14.90444,-0.50625 v 37.53457 c 0,40.38409 0.24397,42.63676 4.88803,45.13334 6.82967,3.67151 16.40062,4.53317 29.74169,2.6776 z"
     id="path40" />
  <path
     style="fill:#455041;fill-opacity:1;fill-rule:nonzero;stroke:#455041;stroke-width:0.947804;stroke-dasharray:none;stroke-opacity:1"
     d="m 468.27872,368.75133 c 1.40698,-1.5547 1.56614,-5.93032 1.56614,-43.05728 V 284.36733 H 454.23068 438.6165 v -2.36579 -2.36578 h 35.95992 35.95993 v 2.36578 2.36579 h -15.61418 -15.61418 v 40.95409 c 0,35.53508 0.19493,41.23239 1.47314,43.05729 l 1.47313,2.10319 h -7.77084 c -7.46832,0 -7.70987,-0.0674 -6.2047,-1.73057 z"
     id="path41" />
  <path
     style="fill:#455041;fill-opacity:1;fill-rule:nonzero;stroke:#455041;stroke-width:0.947804;stroke-dasharray:none;stroke-opacity:1"
     d="m 309.07517,359.9379 c 0.0836,-8.66645 0.25938,-9.95709 0.90759,-6.66401 1.98529,10.08575 8.31084,14.50089 21.6867,15.13698 4.43757,0.21103 9.8696,-0.10585 12.09149,-0.70535 7.48053,-2.01839 14.3773,-10.44639 14.3773,-17.56937 0,-3.91667 -2.99891,-10.1594 -6.0232,-12.53831 -1.38451,-1.08906 -5.80288,-3.31037 -9.81861,-4.93626 -17.44268,-7.0622 -19.64359,-8.1113 -22.76352,-10.85063 -3.96437,-3.48077 -7.70055,-11.10655 -7.71324,-15.74322 -0.0145,-5.29829 2.49428,-12.37056 5.81097,-16.38117 4.5581,-5.51173 11.00968,-8.13765 20.02095,-8.14893 10.00856,-0.0125 15.47625,1.42433 16.18636,4.2536 0.30169,1.20204 0.83943,2.94362 1.19499,3.87018 0.51166,1.33337 -0.0301,1.17767 -2.59833,-0.74668 -5.97329,-4.47582 -8.96515,-5.49371 -16.14741,-5.49371 -12.33073,0 -19.60576,5.8462 -20.48616,16.46266 -0.8103,9.77115 3.0007,13.40143 21.16866,20.16486 12.66178,4.71363 16.1286,6.8201 20.58152,12.50554 6.84036,8.73369 5.39675,22.34515 -3.30974,31.20688 -5.41345,5.50997 -7.87486,6.09394 -27.52661,6.53068 l -17.74339,0.39433 z"
     id="path42" />
  <path
     style="fill:#455041;fill-opacity:1;fill-rule:nonzero;stroke:#455041;stroke-width:0.947804;stroke-dasharray:none;stroke-opacity:1"
     d="m 170.80966,371.32558 c -22.14211,-3.79427 -36.77871,-24.38472 -33.28915,-46.83044 1.05591,-6.79186 4.4539,-16.30449 7.46645,-20.90222 2.29351,-3.50035 2.39347,-2.00305 0.19767,2.96092 -2.31541,5.23438 -2.7717,19.01965 -0.86404,26.10417 3.15423,11.71391 13.98677,25.47568 24.41748,31.02022 14.70314,7.8156 32.38907,5.06854 44.18256,-6.86264 7.20753,-7.29169 10.18263,-13.57168 10.70509,-22.5969 1.14063,-19.70363 -8.40438,-35.17063 -27.57863,-44.68923 -8.36743,-4.1538 -9.5094,-4.46732 -16.4057,-4.50402 -8.91753,-0.0475 -15.73889,2.00912 -21.66322,6.53126 -4.72479,3.60651 -6.30264,4.17129 -3.73879,1.33827 9.17024,-10.133 30.91766,-14.53588 47.0156,-9.51857 6.89932,2.15034 15.62697,8.14246 20.01512,13.74171 9.17938,11.71287 9.72049,31.61999 1.32318,48.67928 -8.80409,17.88568 -31.39422,29.02212 -51.78362,25.52819 z"
     id="path43" />
  <path
     style="fill:#455041;fill-opacity:1;fill-rule:nonzero;stroke:#455041;stroke-width:0.947804;stroke-dasharray:none;stroke-opacity:1"
     d="m 0.47315695,326.39688 v -44.08502 l 15.37760105,0.318 c 14.165458,0.29293 15.750019,0.50448 20.102208,2.68378 12.890685,6.45484 15.307387,21.22279 5.137291,31.39289 l -4.475337,4.47533 4.567984,1.51724 c 5.379406,1.78676 11.445319,7.83426 13.204401,13.16433 1.787752,5.41694 0.912235,16.26755 -1.724315,21.37007 -5.957594,11.52974 -10.479156,13.2484 -34.854783,13.2484 H 0.47315695 Z M 38.13191,367.27002 c 6.430125,-3.32515 9.255546,-10.33671 8.390021,-20.82066 -0.637423,-7.72098 -4.157889,-15.67605 -8.216187,-18.56581 -2.899173,-2.06439 -13.592927,-3.75028 -23.874457,-3.76385 l -5.4413049,-0.007 v 18.02696 c 0,22.32346 0.6821712,24.14812 9.9362959,26.57737 4.259553,1.11815 15.948318,0.2376 19.205632,-1.44682 z m -6.706298,-46.57588 c 1.452929,-1.07471 3.706292,-3.83257 5.007473,-6.12859 1.925939,-3.39845 2.35464,-5.40616 2.305834,-10.79879 C 38.614852,290.058 30.593095,283.42102 14.14813,283.42102 H 8.9899821 v 19.97992 19.97992 l 9.8969709,-0.36636 c 8.145801,-0.30153 10.364392,-0.7121 12.538659,-2.32036 z"
     id="path44" />
  <path
     style="fill:#f5f0eb;stroke:#f5f0eb;stroke-width:0.672251"
     d="m 195.76493,224.06695 c -0.2461,-0.2461 -0.44746,-49.92549 -0.44746,-110.39863 V 3.7171426 l 1.51019,-0.3650952 c 0.8306,-0.2008023 28.84456,-0.282066 62.25325,-0.1805861 l 60.74306,0.184509 0.20846,10.4035077 c 0.27681,13.814606 -0.281,20.137599 -1.77591,20.130565 -0.82524,-0.0039 -1.69162,-1.802348 -3.31419,-6.879739 -2.54414,-7.96119 -4.42467,-11.552783 -7.08068,-13.523319 -1.86741,-1.385459 -2.49162,-1.408638 -43.79542,-1.62626 l -41.901,-0.220768 v 49.050136 49.050137 h 42.95642 42.95642 v 3.35597 3.35597 h -43.29201 -43.29202 l 0.0296,22.9884 c 0.0163,12.64361 0.29288,31.29442 0.61462,41.44623 0.63677,20.09191 1.35305,24.26417 5.10948,29.76228 3.36847,4.93028 1.98109,4.77913 46.03197,5.01512 26.30543,0.14093 40.24639,-0.0254 42.01398,-0.50141 3.80163,-1.02367 7.95119,-4.27662 9.67823,-7.58703 0.82109,-1.57387 2.11965,-5.27502 2.88569,-8.2248 0.94096,-3.62329 1.74089,-5.43026 2.46573,-5.56985 1.6638,-0.32042 1.8986,1.7472 1.90852,16.80603 l 0.009,13.92727 h -68.01433 c -37.40788,0 -68.21569,-0.20135 -68.4618,-0.44746 z"
     id="path5" />
  <path
     style="fill:#f5f0eb;stroke:#f5f0eb;stroke-width:0.672251"
     d="m 430.02734,225.01781 c -0.55299,-1.56892 -18.85463,-51.7629 -40.67033,-111.54218 -21.8157,-59.779292 -39.6649,-109.0868857 -39.6649,-109.5724367 0,-0.7089799 3.76678,-0.88282 19.12903,-0.88282 17.94382,0 19.12903,0.074547 19.12903,1.2031792 0,0.8597332 -0.86646,1.4349213 -3.03543,2.0150311 -4.97342,1.3301873 -5.10196,2.4646919 -1.51618,13.3812834 3.38901,10.317507 19.92649,56.72388 41.68304,116.968123 16.46,45.57804 15.83746,43.90679 16.21492,43.52932 0.50814,-0.50814 47.33276,-132.971581 47.33276,-133.900936 0,-0.495657 -3.65837,-10.039979 -8.1297,-21.209604 -4.47133,-11.169627 -8.28141,-20.6919451 -8.46685,-21.1607083 -0.26758,-0.6764597 2.68022,-0.8149335 14.28822,-0.6711941 l 14.62537,0.1811027 10.48937,28.8613447 c 5.76916,15.873739 20.2691,55.825418 32.22211,88.781505 l 21.73274,59.92018 3.60694,-9.58062 C 574.92029,155.60639 587.59252,120.7227 608.56395,62.421048 619.45254,32.150196 628.77119,6.4015134 629.27206,5.201754 l 0.91067,-2.1813807 h 10.43775 c 9.64068,0 10.43776,0.093151 10.43776,1.2198132 0,0.895022 -1.01714,1.5404389 -3.82007,2.4239831 C 642.70388,8.09348 636.74019,13.614872 634.49975,18.457837 631.60383,24.71773 616.95757,65.37355 580.5237,168.28729 l -21.08345,59.55385 -2.03003,0.0146 -2.03004,0.0146 -29.46174,-81.04668 C 509.71448,102.24803 495.96287,64.598704 495.3593,63.158543 l -1.09741,-2.618476 -1.41578,4.296461 c -0.77867,2.363053 -13.23024,37.369552 -27.67015,77.792212 -14.43991,40.42266 -27.19297,76.13857 -28.34015,79.3687 -1.94162,5.46709 -2.2142,5.87294 -3.94439,5.87294 -1.58147,0 -2.00859,-0.42541 -2.86408,-2.85257 z"
     id="path6" />
  <path
     style="fill:#f5f0eb;stroke:#f5f0eb;stroke-width:0.672251"
     d="m 645.38746,223.03114 c 0.26263,-0.8454 1.66662,-4.25544 3.11996,-7.57785 4.82487,-11.02984 10.87205,-26.10294 48.19037,-120.118483 20.36246,-51.298902 37.31163,-93.8106561 37.6648,-94.47056665 0.38062,-0.71119347 1.40307,-1.19983738 2.51056,-1.19983738 1.75317,0 2.05567,0.46578438 4.9039,7.55093323 15.63559,38.8945698 76.55268,189.2305538 80.24979,198.0467138 4.32351,10.30991 9.61838,15.39875 17.06085,16.39699 1.95742,0.26254 2.58966,0.6535 2.58966,1.60136 0,1.19657 -0.91855,1.25401 -20.05371,1.25401 H 801.56993 L 786.10689,186.08855 C 777.60222,164.95433 768.53648,142.37704 765.9608,135.9168 l -4.68306,-11.7459 -16.34829,-0.49967 c -8.99157,-0.27482 -23.70999,-0.42584 -32.70761,-0.3356 l -16.35931,0.16408 -19.6308,50.33955 -19.6308,50.33956 -5.84549,0.19471 c -5.82012,0.19387 -5.84342,0.18804 -5.36798,-1.34239 z m 97.52738,-107.02166 c 14.01368,-0.43642 14.20852,-0.4625 13.7881,-1.84578 -0.78376,-2.57876 -26.57903,-67.148498 -27.71271,-69.369409 l -1.11754,-2.189293 -14.57984,36.4762 c -8.01891,20.06191 -14.57983,36.677522 -14.57983,36.923592 0,0.57443 25.8194,0.57718 44.20182,0.005 z"
     id="path17" />
  <path
     style="fill:#f5f0eb;stroke:#f5f0eb;stroke-width:0.672251"
     d="m 588.34958,370.33132 c 3.46754,-8.13547 9.01854,-21.88715 21.74247,-53.86332 7.85886,-19.74989 14.71758,-36.25448 15.24162,-36.67688 0.52403,-0.4224 1.46731,-0.62783 2.09617,-0.45652 0.79679,0.21705 5.31361,10.62307 14.90023,34.3277 16.71567,41.33245 21.74145,53.02253 23.30544,54.209 0.65768,0.49893 2.04645,0.91675 3.08615,0.92849 1.66219,0.0188 1.86474,0.24415 1.67799,1.86713 l -0.21238,1.84578 h -9.04604 -9.04604 l -8.39064,-20.63921 -8.39064,-20.63922 h -12.15885 -12.15884 l -7.51812,19.29683 c -4.13496,10.61325 -7.8001,19.97641 -8.14475,20.80701 -0.54305,1.30875 -1.12217,1.51019 -4.3416,1.51019 h -3.71496 z M 632.936,325.4926 c 0,-0.5208 -8.57041,-21.61931 -9.34205,-22.99813 -0.55359,-0.98918 -0.71265,-0.9214 -1.28972,0.54965 -1.33444,3.40167 -8.32109,21.16999 -8.64335,21.9816 -0.25734,0.64811 1.89749,0.839 9.471,0.839 5.39226,0 9.80412,-0.16746 9.80412,-0.37212 z"
     id="path18" />
  <path
     style="fill:#f5f0eb;stroke:#f5f0eb;stroke-width:0.672251"
     d="m 752.40854,326.53591 v -44.97 h 20.7359 c 30.06669,0 37.84437,0.98651 48.33962,6.13135 24.67413,12.09543 28.86007,46.45653 8.46816,69.51266 -4.07394,4.6062 -12.09811,9.90265 -17.55709,11.58875 -6.0822,1.8786 -18.59297,2.70369 -41.02536,2.70561 l -18.96123,0.002 z m 42.62083,41.58282 c 7.52177,-0.86092 13.07161,-2.27584 17.57528,-4.48081 6.79511,-3.32684 14.46744,-12.37225 17.72357,-20.89548 1.76039,-4.60797 2.50641,-17.68924 1.36444,-23.92526 -1.24322,-6.78899 -5.02637,-13.34019 -11.48482,-19.88796 -10.86595,-11.01625 -22.77569,-14.67854 -47.73459,-14.67854 h -8.65441 l 0.024,32.04952 c 0.0256,34.32629 0.49651,43.93061 2.2878,46.66447 3.02265,4.61315 14.98484,6.74658 28.89878,5.15406 z"
     id="path19" />
  <path
     style="fill:#f5f0eb;stroke:#f5f0eb;stroke-width:0.672251"
     d="m 462.45271,370.86513 c 0,-0.35242 1.06531,-0.84063 2.36737,-1.0849 1.38344,-0.25953 2.7085,-1.03931 3.18817,-1.87619 0.61574,-1.0743 0.87219,-11.61592 1.0265,-42.19466 l 0.20571,-40.76257 -15.64317,-0.18027 -15.64317,-0.18026 v -2.68477 -2.68478 l 36.74788,-0.17353 36.74787,-0.17353 v 3.0261 3.02611 H 495.6263 479.80273 l 0.23393,40.43944 c 0.25838,44.66621 0.16915,43.7491 4.33251,44.53015 5.26135,0.98704 1.43927,1.61444 -9.83497,1.61444 -7.22458,0 -12.08149,-0.2576 -12.08149,-0.64078 z"
     id="path20" />
  <path
     style="fill:#f5f0eb;stroke:#f5f0eb;stroke-width:0.672251"
     d="m 308.45383,370.8997 c -0.66318,-1.07305 0.3543,-25.57036 1.06205,-25.57036 0.31668,0 0.57578,1.26385 0.57578,2.80855 0,4.47278 1.95301,10.30294 4.41471,13.17889 3.70388,4.32715 7.81383,5.69064 18.16657,6.02682 9.76297,0.31702 12.30182,-0.1872 16.68357,-3.31337 7.01133,-5.00224 9.62711,-13.65222 6.17791,-20.42941 -2.7967,-5.49511 -5.46967,-7.22314 -19.86515,-12.84247 -14.30534,-5.58413 -17.6509,-7.91605 -21.94653,-15.29714 -1.80273,-3.0976 -1.9531,-3.87272 -1.9531,-10.06791 0,-5.86534 0.22523,-7.1924 1.78565,-10.52107 5.05717,-10.78788 15.52328,-15.80273 29.23794,-14.0094 10.72349,1.40221 10.45087,1.24002 12.74787,7.5841 1.10244,3.04484 1.90197,5.65856 1.77674,5.80828 -0.12523,0.14971 -1.8389,-1.25161 -3.80816,-3.11405 -6.05224,-5.72396 -8.23784,-6.55488 -17.24146,-6.55488 -7.31939,0 -7.90719,0.10418 -11.36154,2.01358 -8.60972,4.75908 -11.35517,17.26828 -5.20601,23.72036 2.70784,2.84124 7.12494,5.06292 18.91673,9.51464 10.67871,4.0315 13.32422,5.52272 17.46575,9.84505 4.91721,5.13189 6.01461,8.10664 6.02076,16.32063 0.005,6.39433 -0.17191,7.4084 -1.90654,10.94098 -2.17125,4.42177 -7.16876,9.75651 -10.71716,11.44033 -4.26617,2.02443 -8.57236,2.53235 -24.69986,2.91337 -11.55651,0.27303 -15.97956,0.16587 -16.32652,-0.39552 z"
     id="path21" />
  <path
     style="fill:#f5f0eb;stroke:#f5f0eb;stroke-width:0.672251"
     d="m 171.06721,372.17312 c -9.27932,-1.47045 -16.62785,-5.39847 -23.39368,-12.50466 -11.50915,-12.08811 -14.34523,-28.16137 -8.12892,-46.07002 4.54183,-13.08462 14.79704,-24.36554 26.66423,-29.33112 13.38756,-5.60175 31.09376,-4.92064 42.87881,1.64944 8.11046,4.52152 15.6083,12.99935 18.23215,20.61514 1.70988,4.96293 2.35368,13.6603 1.53005,20.6698 -2.14015,18.21373 -11.53472,32.28155 -26.61407,39.85301 -8.56395,4.30004 -22.20096,6.53946 -31.16857,5.11841 z m 26.54581,-6.67218 c 5.67863,-1.97849 9.51656,-4.39074 14.35498,-9.02251 7.88329,-7.54658 10.87644,-14.59026 10.85851,-25.55298 -0.0298,-18.22163 -9.20923,-31.75665 -27.84464,-41.05674 -6.39483,-3.19137 -8.05957,-3.73561 -12.43656,-4.06577 -11.83355,-0.89262 -21.09093,2.66184 -29.89847,11.47981 -4.93827,4.94412 -5.56236,5.87265 -7.03022,10.45973 -1.33169,4.16155 -1.61063,6.4298 -1.60953,13.08828 0.001,8.6882 0.94406,13.10991 4.14331,19.43596 7.22504,14.28641 19.27605,24.25168 32.4008,26.79298 3.52234,0.68202 13.15669,-0.19817 17.06182,-1.55876 z"
     id="path22" />
  <path
     style="fill:#f5f0eb;stroke:#f5f0eb;stroke-width:0.672251"
     d="m 0,326.53591 v -44.97 l 11.578098,0.0207 c 6.367953,0.0114 13.791013,0.30806 16.495688,0.65925 8.400816,1.09081 14.84915,5.50291 18.625348,12.74391 0.859241,1.64763 1.23234,3.85366 1.24934,7.38701 0.02998,6.23096 -2.130071,11.17713 -6.734794,15.42162 -1.681708,1.55014 -2.959185,2.88849 -2.838837,2.9741 0.120349,0.0856 1.672063,0.69438 3.448254,1.35281 9.873151,3.65998 15.26042,13.07223 14.354469,25.07912 -0.669414,8.87199 -6.159632,18.02822 -12.725236,21.22235 -4.979493,2.42248 -10.75386,3.05064 -28.182665,3.06582 L 0,371.50591 Z m 36.005425,40.55834 c 4.025739,-1.11234 6.845681,-3.91371 8.622162,-8.56536 0.931478,-2.43904 1.104869,-4.50417 0.865328,-10.30627 -0.352934,-8.54863 -1.928019,-13.37786 -5.752205,-17.63634 -3.362517,-3.74438 -7.153279,-4.72431 -20.108284,-5.19811 l -10.2357091,-0.37434 0.029257,11.66794 c 0.038013,15.16024 0.8536101,24.96173 2.2550871,27.10066 1.530594,2.33598 4.551982,3.71422 9.351257,4.26567 5.246961,0.6029 10.565103,0.26411 14.973107,-0.95385 z m -6.650643,-46.18118 c 2.538753,-1.32599 5.097288,-4.19462 6.957778,-7.80104 1.270466,-2.46271 1.558424,-4.07374 1.559607,-8.72552 0.0017,-6.8249 -0.983988,-10.02274 -4.179887,-13.56022 -4.10405,-4.54269 -9.965424,-6.57561 -18.959048,-6.57561 h -4.665321 v 19.23271 19.23271 l 8.715564,-0.41689 c 5.544007,-0.26518 9.390862,-0.76959 10.571307,-1.38614 z"
     id="path23" />
  <path
     style="fill:#f5f0eb;stroke:#f5f0eb;stroke-width:0.672251"
     d="m 0.67119406,223.20527 c 0,-1.0012 0.60033964,-1.40962 2.51697774,-1.7123 1.3843377,-0.21861 3.5636713,-0.56023 4.8429638,-0.75914 3.0996374,-0.48196 5.8596554,-1.9667 6.7506234,-3.63149 0.399563,-0.74659 1.001932,-5.34953 1.338597,-10.22877 0.694016,-10.05822 0.76007,-132.553594 0.09239,-171.330147 C 15.820529,12.765 15.645568,9.8136458 14.59215,8.2062327 13.171114,6.037872 10.615953,4.6310244 7.0243445,4.0394714 0.95539394,3.0398897 0.67119406,2.9318661 0.67119406,1.6246552 c 0,-1.2519698 0.85935644,-1.28905817 29.86813594,-1.28905817 29.106015,0 29.868135,0.0332032 29.868135,1.30126207 0,1.0461646 -0.625004,1.3833305 -3.188171,1.7198958 -5.135642,0.6743527 -9.643862,2.5135948 -11.157462,4.5519683 -1.223107,1.647164 -1.453955,3.3133338 -1.952877,14.0950758 -0.311192,6.724904 -0.433563,47.565465 -0.271934,90.756801 0.270087,72.17416 0.38814,78.82848 1.45866,82.22127 3.294767,10.44211 9.114049,16.07703 19.898354,19.26793 2.94511,0.87141 8.529135,1.12 30.567853,1.36082 28.662302,0.31319 31.294502,0.11588 37.629492,-2.82089 4.16497,-1.93078 9.71278,-6.92979 11.97551,-10.79086 3.21804,-5.49116 5.43971,-14.60549 6.66885,-27.35875 0.36306,-3.76703 0.63634,-4.53096 1.55741,-4.35358 1.01976,0.1964 1.11708,2.55314 1.11708,27.05371 v 26.83857 l -77.019517,0.17063 C 1.5991674,224.51802 0.67119406,224.50423 0.67119406,223.20527 Z"
     id="path24" />
  <path
     style="fill:#f5f0eb;stroke:#f5f0eb;stroke-width:0.0210078"
     d="m 150.40009,184.66751 c 0.0142,-0.0398 0.22556,-1.36322 0.34418,-2.15516 0.35501,-2.37021 0.63508,-4.66839 0.94575,-7.76068 0.23834,-2.37244 0.39689,-3.3709 0.62707,-3.94906 0.0357,-0.0897 0.0649,-0.19589 0.0649,-0.23596 0,-0.0576 0.008,-0.0729 0.0398,-0.0729 0.0248,0 0.0652,-0.0396 0.10709,-0.10493 0.1459,-0.22736 0.40912,-0.39988 0.68126,-0.44649 0.10126,-0.0174 0.18586,-0.0172 0.32716,6.6e-4 0.32517,0.041 0.56833,0.18984 0.71733,0.43894 l 0.0669,0.11182 h 0.19292 0.19293 l 0.009,1.01203 c 0.006,0.70123 0.0192,1.12477 0.0427,1.3791 0.0897,0.97216 0.15759,2.78384 0.2032,5.42199 0.0193,1.1175 0.0623,5.27474 0.0627,6.06696 l 1.6e-4,0.31987 h -2.31706 c -1.84465,0 -2.31515,-0.005 -2.3077,-0.0262 z"
     id="path25" />
  <path
     style="fill:#f5f0eb;stroke:#f5f0eb;stroke-width:0.0148548"
     d="M 0.7304481,3.1109231 0.50426874,3.1064127 V 2.8307274 2.5550421 l 0.0597308,0.089448 c 0.0846641,0.1267855 0.28337955,0.3084014 0.43729116,0.399662 l 0.1313198,0.077865 -0.087992,-0.00329 c -0.0483954,-0.00181 -0.18977228,-0.00532 -0.31417093,-0.0078 z"
     id="path26" />
  <path
     style="fill:#f5f0eb;stroke:#f5f0eb;stroke-width:0.0148548"
     d="m 0.50488612,0.89359387 -6.1738e-4,-0.10011218 0.10011218,4.3476e-4 0.10011217,4.3477e-4 -0.05191,0.0466045 c -0.0285505,0.0256325 -0.0733232,0.0704873 -0.0994948,0.0996774 l -0.0475848,0.0530729 z"
     id="path27" />
  <path
     style="fill:#f5f0eb;stroke:#f5f0eb;stroke-width:0.0105039"
     d="m 59.94602,3.048865 c 0.162971,-0.091622 0.342346,-0.2253846 0.418406,-0.3120121 l 0.03255,-0.037075 v 0.1996257 0.1996256 l -0.27005,-2.39e-5 -0.270051,-2.4e-5 z"
     id="path28" />
  <path
     style="fill:#f5f0eb;stroke:#f5f0eb;stroke-width:0.0039124"
     d="m 629.09391,281.40333 c -0.0602,-0.12361 -0.28261,-0.56184 -0.36872,-0.72633 -0.29945,-0.57203 -0.5414,-0.98646 -0.72477,-1.24145 l -0.0239,-0.0332 0.16091,-0.001 c 0.0885,-5.6e-4 0.16205,3.2e-4 0.16346,0.002 0.005,0.005 0.84435,2.09534 0.84264,2.09705 -9.1e-4,9.1e-4 -0.0232,-0.0427 -0.0496,-0.097 z"
     id="path29" />
  <path
     style="fill:#f5f0eb;stroke:#f5f0eb;stroke-width:0.0039124"
     d="m 624.98849,279.68393 c -1.2e-4,-0.002 0.0248,-0.0666 0.0553,-0.14356 l 0.0555,-0.13998 h 0.10143 0.10142 l -0.0466,0.0318 c -0.0698,0.0477 -0.13669,0.0997 -0.16761,0.13032 -0.0232,0.023 -0.0665,0.0769 -0.0926,0.11525 -0.004,0.005 -0.007,0.008 -0.007,0.006 z"
     id="path30" />
  <path
     style="fill:#f5f0eb;stroke:#f5f0eb;stroke-width:0.0110659"
     d="m 841.38814,224.25812 c 0.12799,-0.0607 0.27113,-0.15655 0.34697,-0.23239 l 0.0645,-0.0645 v 0.17037 0.17036 l -0.25135,-3e-4 -0.25135,-3e-4 z"
     id="path31" />
  <path
     style="fill:#f5f0eb;stroke:#f5f0eb;stroke-width:0.0110659"
     d="m 841.75198,222.34196 c -0.0231,-0.0349 -0.0791,-0.10214 -0.12429,-0.14948 -0.0452,-0.0473 -0.0822,-0.09 -0.0822,-0.0948 0,-0.008 0.24192,8.5e-4 0.2506,0.01 0.002,0.002 0.003,0.0703 10e-4,0.15117 l -0.003,0.14699 z"
     id="path32" />
  <path
     style="fill:#f5f0eb;stroke:#f5f0eb;stroke-width:0.0156496"
     d="m 650.54207,5.6271511 c 0.18325,-0.1302914 0.3739,-0.299135 0.46683,-0.4134305 0.0424,-0.052117 0.0823,-0.095157 0.0888,-0.095646 0.006,-4.881e-4 0.0117,0.1286847 0.0117,0.2870507 v 0.2879382 l -0.082,0.00837 c -0.0451,0.00461 -0.20311,0.011353 -0.35109,0.014994 l -0.26906,0.00662 z"
     id="path33" />
  <path
     style="fill:#f5f0eb;stroke:#f5f0eb;stroke-width:0.0221319"
     d="m 387.51661,5.5557935 c 0.0304,-0.024391 0.10184,-0.083723 0.15878,-0.1318474 0.057,-0.048125 0.10915,-0.0875 0.11601,-0.0875 0.007,0 0.0125,0.059662 0.0125,0.1325825 v 0.1325825 l -0.17125,-7.351e-4 -0.17125,-7.352e-4 z"
     id="path45" />
  <path
     style="fill:#f5f0eb;stroke:#f5f0eb;stroke-width:0.0078248"
     d="m 349.4328,3.4933734 -0.0316,-0.087123 0.0654,-0.00226 c 0.036,-0.00124 0.0937,-0.00124 0.1282,0 l 0.0628,0.00226 -0.0511,0.037461 c -0.0281,0.020603 -0.0716,0.059809 -0.0966,0.087123 l -0.0455,0.049663 z"
     id="path46" />
  <path
     style="fill:#f5f0eb;stroke:#f5f0eb;stroke-width:0.0110659"
     d="m 318.93971,33.904903 c 0.19635,-0.204853 0.3617,-0.496202 0.50302,-0.886331 0.0275,-0.07596 0.0521,-0.140178 0.0545,-0.14271 0.002,-0.0025 0.005,0.227416 0.005,0.510995 v 0.515599 h -0.2524 c -0.24444,0 -0.25307,7.5e-4 -0.27346,0.02377 -0.0233,0.02636 -0.11349,0.08672 -0.12952,0.08672 -0.006,0 0.0364,-0.04862 0.0933,-0.108038 z"
     id="path47" />
  <path
     style="fill:#f5f0eb;stroke:#f5f0eb;stroke-width:0.0110659"
     d="m 317.29932,33.894169 c -0.01,-0.01597 -0.0862,-0.314206 -0.0816,-0.318783 0.003,-0.0025 0.0285,0.02578 0.0577,0.06294 0.0292,0.03716 0.0952,0.111792 0.14661,0.165847 l 0.0935,0.09828 h -0.10556 c -0.0581,0 -0.10786,-0.0037 -0.11067,-0.0083 z"
     id="path48" />
</svg>
